<svg width="362" height="35" viewBox="0 0 362 35" fill="none" xmlns="http://www.w3.org/2000/svg">
<path d="M6.3 -2.38419e-06H13.75L19.45 35H13.95L12.95 28.05V28.15H6.7L5.7 35H0.6L6.3 -2.38419e-06ZM12.3 23.4L9.85 6.1H9.75L7.35 23.4H12.3ZM22.1184 -2.38419e-06H27.6184V30H36.6684V35H22.1184V-2.38419e-06ZM35.5609 -2.38419e-06H41.1109L44.7109 27.15H44.8109L48.4109 -2.38419e-06H53.4609L48.1609 35H40.8609L35.5609 -2.38419e-06ZM56.1027 -2.38419e-06H61.6027V35H56.1027V-2.38419e-06ZM65.7219 -2.38419e-06H72.6219L77.9719 20.95H78.0719V-2.38419e-06H82.9719V35H77.3219L70.7219 9.45H70.6219V35H65.7219V-2.38419e-06ZM99.3176 -2.38419e-06H106.768L112.468 35H106.968L105.968 28.05V28.15H99.7176L98.7176 35H93.6176L99.3176 -2.38419e-06ZM105.318 23.4L102.868 6.1H102.768L100.368 23.4H105.318ZM115.136 -2.38419e-06H120.636V14.25H126.536V-2.38419e-06H132.036V35H126.536V19.25H120.636V35H115.136V-2.38419e-06ZM136.132 -2.38419e-06H143.032L148.382 20.95H148.482V-2.38419e-06H153.382V35H147.732L141.132 9.45H141.032V35H136.132V-2.38419e-06ZM161.72 -2.38419e-06H169.17L174.87 35H169.37L168.37 28.05V28.15H162.12L161.12 35H156.02L161.72 -2.38419e-06ZM167.72 23.4L165.27 6.1H165.17L162.77 23.4H167.72ZM177.538 -2.38419e-06H192.088V5H183.038V14.75H190.138V19.75H183.038V35H177.538V-2.38419e-06ZM202.734 -2.38419e-06H211.134C213.867 -2.38419e-06 215.917 0.733331 217.284 2.2C218.65 3.66666 219.334 5.81666 219.334 8.65V26.35C219.334 29.1833 218.65 31.3333 217.284 32.8C215.917 34.2667 213.867 35 211.134 35H202.734V-2.38419e-06ZM211.034 30C211.934 30 212.617 29.7333 213.084 29.2C213.584 28.6667 213.834 27.8 213.834 26.6V8.4C213.834 7.2 213.584 6.33333 213.084 5.8C212.617 5.26667 211.934 5 211.034 5H208.234V30H211.034ZM227.198 -2.38419e-06H234.648L240.348 35H234.848L233.848 28.05V28.15H227.598L226.598 35H221.498L227.198 -2.38419e-06ZM233.198 23.4L230.748 6.1H230.648L228.248 23.4H233.198ZM243.017 -2.38419e-06H249.917L255.267 20.95H255.367V-2.38419e-06H260.267V35H254.617L248.017 9.45H247.917V35H243.017V-2.38419e-06ZM264.355 -2.38419e-06H279.355V5H269.855V14.25H277.405V19.25H269.855V30H279.355V35H264.355V-2.38419e-06ZM282.519 -2.38419e-06H289.419L294.769 20.95H294.869V-2.38419e-06H299.769V35H294.119L287.519 9.45H287.419V35H282.519V-2.38419e-06ZM303.857 -2.38419e-06H312.257C314.99 -2.38419e-06 317.04 0.733331 318.407 2.2C319.773 3.66666 320.457 5.81666 320.457 8.65V26.35C320.457 29.1833 319.773 31.3333 318.407 32.8C317.04 34.2667 314.99 35 312.257 35H303.857V-2.38419e-06ZM312.157 30C313.057 30 313.74 29.7333 314.207 29.2C314.707 28.6667 314.957 27.8 314.957 26.6V8.4C314.957 7.2 314.707 6.33333 314.207 5.8C313.74 5.26667 313.057 5 312.157 5H309.357V30H312.157ZM324.169 -2.38419e-06H332.319C335.152 -2.38419e-06 337.219 0.666665 338.519 2C339.819 3.3 340.469 5.31666 340.469 8.05V10.2C340.469 13.8333 339.269 16.1333 336.869 17.1V17.2C338.202 17.6 339.136 18.4167 339.669 19.65C340.236 20.8833 340.519 22.5333 340.519 24.6V30.75C340.519 31.75 340.552 32.5667 340.619 33.2C340.686 33.8 340.852 34.4 341.119 35H335.519C335.319 34.4333 335.186 33.9 335.119 33.4C335.052 32.9 335.019 32 335.019 30.7V24.3C335.019 22.7 334.752 21.5833 334.219 20.95C333.719 20.3167 332.836 20 331.569 20H329.669V35H324.169V-2.38419e-06ZM331.669 15C332.769 15 333.586 14.7167 334.119 14.15C334.686 13.5833 334.969 12.6333 334.969 11.3V8.6C334.969 7.33333 334.736 6.41667 334.269 5.85C333.836 5.28333 333.136 5 332.169 5H329.669V15H331.669ZM348.585 -2.38419e-06H356.035L361.735 35H356.235L355.235 28.05V28.15H348.985L347.985 35H342.885L348.585 -2.38419e-06ZM354.585 23.4L352.135 6.1H352.035L349.635 23.4H354.585Z" fill="#656565"/>
</svg>
