<svg width="180" height="31" viewBox="0 0 180 31" fill="none" xmlns="http://www.w3.org/2000/svg">
<path d="M42.4979 24.15C41.4145 24.15 40.3729 24.0083 39.3729 23.725C38.3729 23.425 37.5895 23.05 37.0229 22.6L38.0229 20.7C38.6062 21.1167 39.3145 21.45 40.1479 21.7C40.9812 21.95 41.8229 22.075 42.6729 22.075C44.7729 22.075 45.8229 21.475 45.8229 20.275C45.8229 19.875 45.6812 19.5583 45.3979 19.325C45.1145 19.0917 44.7562 18.925 44.3229 18.825C43.9062 18.7083 43.3062 18.5833 42.5229 18.45C41.4562 18.2833 40.5812 18.0917 39.8979 17.875C39.2312 17.6583 38.6562 17.2917 38.1729 16.775C37.6895 16.2583 37.4479 15.5333 37.4479 14.6C37.4479 13.4 37.9479 12.4417 38.9479 11.725C39.9479 10.9917 41.2895 10.625 42.9729 10.625C43.8562 10.625 44.7395 10.7333 45.6229 10.95C46.5062 11.1667 47.2312 11.4583 47.7979 11.825L46.7729 13.725C45.6895 13.025 44.4145 12.675 42.9479 12.675C41.9312 12.675 41.1562 12.8417 40.6229 13.175C40.0895 13.5083 39.8229 13.95 39.8229 14.5C39.8229 14.9333 39.9729 15.275 40.2729 15.525C40.5729 15.775 40.9395 15.9583 41.3729 16.075C41.8229 16.1917 42.4479 16.325 43.2479 16.475C44.3145 16.6583 45.1729 16.8583 45.8229 17.075C46.4895 17.275 47.0562 17.625 47.5229 18.125C47.9895 18.625 48.2229 19.325 48.2229 20.225C48.2229 21.425 47.7062 22.3833 46.6729 23.1C45.6562 23.8 44.2645 24.15 42.4979 24.15ZM62.9473 17.45C62.9473 17.6333 62.9306 17.875 62.8973 18.175H52.1473C52.2973 19.3417 52.8056 20.2833 53.6723 21C54.5556 21.7 55.6473 22.05 56.9473 22.05C58.5306 22.05 59.8056 21.5167 60.7723 20.45L62.0973 22C61.4973 22.7 60.7473 23.2333 59.8473 23.6C58.9639 23.9667 57.9723 24.15 56.8723 24.15C55.4723 24.15 54.2306 23.8667 53.1473 23.3C52.0639 22.7167 51.2223 21.9083 50.6223 20.875C50.0389 19.8417 49.7473 18.675 49.7473 17.375C49.7473 16.0917 50.0306 14.9333 50.5973 13.9C51.1806 12.8667 51.9723 12.0667 52.9723 11.5C53.9889 10.9167 55.1306 10.625 56.3973 10.625C57.6639 10.625 58.7889 10.9167 59.7723 11.5C60.7723 12.0667 61.5473 12.8667 62.0973 13.9C62.6639 14.9333 62.9473 16.1167 62.9473 17.45ZM56.3973 12.65C55.2473 12.65 54.2806 13 53.4973 13.7C52.7306 14.4 52.2806 15.3167 52.1473 16.45H60.6473C60.5139 15.3333 60.0556 14.425 59.2723 13.725C58.5056 13.0083 57.5473 12.65 56.3973 12.65ZM73.1049 10.625C74.7882 10.625 76.1216 11.1167 77.1049 12.1C78.1049 13.0667 78.6049 14.4917 78.6049 16.375V24H76.2049V16.65C76.2049 15.3667 75.8966 14.4 75.2799 13.75C74.6632 13.1 73.7799 12.775 72.6299 12.775C71.3299 12.775 70.3049 13.1583 69.5549 13.925C68.8049 14.675 68.4299 15.7583 68.4299 17.175V24H66.0299V10.75H68.3299V12.75C68.8132 12.0667 69.4632 11.5417 70.2799 11.175C71.1132 10.8083 72.0549 10.625 73.1049 10.625ZM95.3697 5.45V24H93.0697V21.9C92.5364 22.6333 91.8614 23.1917 91.0447 23.575C90.2281 23.9583 89.3281 24.15 88.3447 24.15C87.0614 24.15 85.9114 23.8667 84.8947 23.3C83.8781 22.7333 83.0781 21.9417 82.4947 20.925C81.9281 19.8917 81.6447 18.7083 81.6447 17.375C81.6447 16.0417 81.9281 14.8667 82.4947 13.85C83.0781 12.8333 83.8781 12.0417 84.8947 11.475C85.9114 10.9083 87.0614 10.625 88.3447 10.625C89.2947 10.625 90.1697 10.8083 90.9697 11.175C91.7697 11.525 92.4364 12.05 92.9697 12.75V5.45H95.3697ZM88.5447 22.05C89.3781 22.05 90.1364 21.8583 90.8197 21.475C91.5031 21.075 92.0364 20.525 92.4197 19.825C92.8031 19.1083 92.9947 18.2917 92.9947 17.375C92.9947 16.4583 92.8031 15.65 92.4197 14.95C92.0364 14.2333 91.5031 13.6833 90.8197 13.3C90.1364 12.9167 89.3781 12.725 88.5447 12.725C87.6947 12.725 86.9281 12.9167 86.2447 13.3C85.5781 13.6833 85.0447 14.2333 84.6447 14.95C84.2614 15.65 84.0697 16.4583 84.0697 17.375C84.0697 18.2917 84.2614 19.1083 84.6447 19.825C85.0447 20.525 85.5781 21.075 86.2447 21.475C86.9281 21.8583 87.6947 22.05 88.5447 22.05ZM110.95 10.625C112.783 10.625 114.183 11.075 115.15 11.975C116.133 12.875 116.625 14.2167 116.625 16V24H114.35V22.25C113.95 22.8667 113.375 23.3417 112.625 23.675C111.891 23.9917 111.016 24.15 110 24.15C108.516 24.15 107.325 23.7917 106.425 23.075C105.541 22.3583 105.1 21.4167 105.1 20.25C105.1 19.0833 105.525 18.15 106.375 17.45C107.225 16.7333 108.575 16.375 110.425 16.375H114.225V15.9C114.225 14.8667 113.925 14.075 113.325 13.525C112.725 12.975 111.841 12.7 110.675 12.7C109.891 12.7 109.125 12.8333 108.375 13.1C107.625 13.35 106.991 13.6917 106.475 14.125L105.475 12.325C106.158 11.775 106.975 11.3583 107.925 11.075C108.875 10.775 109.883 10.625 110.95 10.625ZM110.4 22.3C111.316 22.3 112.108 22.1 112.775 21.7C113.441 21.2833 113.925 20.7 114.225 19.95V18.1H110.525C108.491 18.1 107.475 18.7833 107.475 20.15C107.475 20.8167 107.733 21.3417 108.25 21.725C108.766 22.1083 109.483 22.3 110.4 22.3ZM143.855 10.625C145.522 10.625 146.838 11.1083 147.805 12.075C148.788 13.0417 149.28 14.475 149.28 16.375V24H146.88V16.65C146.88 15.3667 146.58 14.4 145.98 13.75C145.397 13.1 144.555 12.775 143.455 12.775C142.238 12.775 141.272 13.1583 140.555 13.925C139.838 14.675 139.48 15.7583 139.48 17.175V24H137.08V16.65C137.08 15.3667 136.78 14.4 136.18 13.75C135.597 13.1 134.755 12.775 133.655 12.775C132.438 12.775 131.472 13.1583 130.755 13.925C130.038 14.675 129.68 15.7583 129.68 17.175V24H127.28V10.75H129.58V12.725C130.063 12.0417 130.697 11.525 131.48 11.175C132.263 10.8083 133.155 10.625 134.155 10.625C135.188 10.625 136.105 10.8333 136.905 11.25C137.705 11.6667 138.322 12.275 138.755 13.075C139.255 12.3083 139.947 11.7083 140.83 11.275C141.73 10.8417 142.738 10.625 143.855 10.625ZM158.271 10.625C160.104 10.625 161.504 11.075 162.471 11.975C163.454 12.875 163.946 14.2167 163.946 16V24H161.671V22.25C161.271 22.8667 160.696 23.3417 159.946 23.675C159.213 23.9917 158.338 24.15 157.321 24.15C155.838 24.15 154.646 23.7917 153.746 23.075C152.863 22.3583 152.421 21.4167 152.421 20.25C152.421 19.0833 152.846 18.15 153.696 17.45C154.546 16.7333 155.896 16.375 157.746 16.375H161.546V15.9C161.546 14.8667 161.246 14.075 160.646 13.525C160.046 12.975 159.163 12.7 157.996 12.7C157.213 12.7 156.446 12.8333 155.696 13.1C154.946 13.35 154.313 13.6917 153.796 14.125L152.796 12.325C153.479 11.775 154.296 11.3583 155.246 11.075C156.196 10.775 157.204 10.625 158.271 10.625ZM157.721 22.3C158.638 22.3 159.429 22.1 160.096 21.7C160.763 21.2833 161.246 20.7 161.546 19.95V18.1H157.846C155.813 18.1 154.796 18.7833 154.796 20.15C154.796 20.8167 155.054 21.3417 155.571 21.725C156.088 22.1083 156.804 22.3 157.721 22.3ZM168.137 10.75H170.537V24H168.137V10.75ZM169.337 8.2C168.871 8.2 168.479 8.05 168.162 7.75C167.862 7.45 167.712 7.08333 167.712 6.65C167.712 6.21667 167.862 5.85 168.162 5.55C168.479 5.23333 168.871 5.075 169.337 5.075C169.804 5.075 170.187 5.225 170.487 5.525C170.804 5.80833 170.962 6.16667 170.962 6.6C170.962 7.05 170.804 7.43333 170.487 7.75C170.187 8.05 169.804 8.2 169.337 8.2ZM174.87 5.45H177.27V24H174.87V5.45Z" fill="white"/>
<path d="M15.5 2.5188C8.37001 2.5188 2.58334 8.30547 2.58334 15.4355C2.58334 22.5655 8.37001 28.3521 15.5 28.3521H21.9583V25.7688H15.5C9.89418 25.7688 5.16668 21.0413 5.16668 15.4355C5.16668 9.82963 9.89418 5.10213 15.5 5.10213C21.1058 5.10213 25.8333 9.82963 25.8333 15.4355V17.2826C25.8333 18.303 24.9163 19.3105 23.8958 19.3105C22.8754 19.3105 21.9583 18.303 21.9583 17.2826V15.4355C21.9583 11.8705 19.065 8.97713 15.5 8.97713C11.935 8.97713 9.04168 11.8705 9.04168 15.4355C9.04168 19.0005 11.935 21.8938 15.5 21.8938C17.2825 21.8938 18.91 21.1705 20.0725 19.995C20.9121 21.1446 22.3588 21.8938 23.8958 21.8938C26.4404 21.8938 28.4167 19.8271 28.4167 17.2826V15.4355C28.4167 8.30547 22.63 2.5188 15.5 2.5188V2.5188ZM15.5 19.3105C13.3558 19.3105 11.625 17.5796 11.625 15.4355C11.625 13.2913 13.3558 11.5605 15.5 11.5605C17.6442 11.5605 19.375 13.2913 19.375 15.4355C19.375 17.5796 17.6442 19.3105 15.5 19.3105Z" fill="#FCFCFC"/>
</svg>
