<svg width="126" height="40" viewBox="0 0 126 40" fill="none" xmlns="http://www.w3.org/2000/svg">
<path d="M30.727 12.066C30.7191 9.99 30.0028 7.97927 28.697 6.36547C29.1405 4.52094 29.0018 2.58409 28.3013 0.820894C28.1632 0.481478 27.88 0.221982 27.5302 0.113444C27.0349 -0.0562704 25.1607 -0.37447 21.3418 2.10056V2.10105C19.6989 1.66741 18.0048 1.46267 16.3063 1.49277C14.6052 1.46218 12.9082 1.66692 11.2634 2.10105C7.34532 -0.430772 5.30832 -0.0208186 4.89837 0.0995401C4.54661 0.212514 4.26394 0.477437 4.12727 0.820794C3.42476 2.57806 3.2812 4.50948 3.71731 6.35161C2.36848 7.95694 1.64974 9.99786 1.69458 12.0941C1.69458 19.9165 6.17108 22.2786 10.2733 23.1133C10.0626 23.6283 9.91756 24.1676 9.84207 24.7186C9.83467 24.7773 9.83467 24.837 9.84207 24.8957V27.0595C6.10805 27.3708 5.30873 25.1853 5.23081 24.9376V24.9381C5.21256 24.8804 5.19134 24.8237 5.16668 24.7679C4.44542 23.2969 3.17602 22.1665 1.63043 21.6209C0.982185 21.4044 0.280593 21.7541 0.0641246 22.4024C-0.152445 23.0506 0.197327 23.7522 0.845572 23.9692C1.702 24.2785 2.41642 24.8893 2.85441 25.6874C3.34973 27.2927 5.37247 29.8319 9.82776 29.5487V31.5857C9.82776 32.2695 10.3818 32.8235 11.0656 32.8235C11.7488 32.8235 12.3033 32.2695 12.3033 31.5857V24.9874C12.3971 24.2666 12.7108 23.5927 13.2012 23.0565C13.5525 22.7279 13.6798 22.2252 13.5278 21.7689C13.3759 21.313 12.9718 20.9869 12.4943 20.9346C8.18004 20.4324 4.1914 19.0112 4.1914 12.0446H4.19091C4.13319 10.3446 4.78983 8.69784 6.00147 7.50398C6.33004 7.15075 6.43856 6.64606 6.28465 6.18875C5.86777 4.97811 5.84064 3.66728 6.2067 2.44033C7.72514 2.7832 9.15138 3.45167 10.3863 4.39941C10.7079 4.61204 11.109 4.6668 11.4756 4.54791C13.0473 4.06937 14.6852 3.84737 16.3276 3.89029C17.9669 3.84737 19.6029 4.06938 21.1721 4.54791C21.5386 4.66779 21.9402 4.61303 22.2614 4.39941C23.4508 3.48772 24.8124 2.82616 26.2643 2.45423C26.6249 3.69497 26.5929 5.01661 26.172 6.23813C26.0314 6.65304 26.1232 7.11184 26.4128 7.44039C27.5835 8.69051 28.2466 10.3323 28.2727 12.0447C28.2727 18.9968 24.0789 20.4399 19.9699 20.9347C19.4662 20.9909 19.0483 21.3496 18.9171 21.839C18.7858 22.3284 18.9679 22.8479 19.3759 23.1488C19.8145 23.4813 20.3236 24.4146 20.3236 25.9775V31.579C20.3236 32.2627 20.8776 32.8167 21.5609 32.8167C22.2446 32.8167 22.7987 32.2627 22.7987 31.579V25.9775C22.8115 24.9923 22.6314 24.0145 22.2683 23.0989C25.5924 22.392 30.7272 20.2065 30.7272 12.066L30.727 12.066Z" fill="#FCFCFC"/>
<path d="M50.9282 24.15H53.3282V30.975C52.4616 31.6917 51.4532 32.2417 50.3032 32.625C49.1532 33.0083 47.9532 33.2 46.7032 33.2C44.9366 33.2 43.3449 32.8167 41.9282 32.05C40.5116 31.2667 39.3949 30.2 38.5782 28.85C37.7782 27.4833 37.3782 25.95 37.3782 24.25C37.3782 22.55 37.7782 21.0167 38.5782 19.65C39.3949 18.2833 40.5116 17.2167 41.9282 16.45C43.3616 15.6833 44.9699 15.3 46.7532 15.3C48.1532 15.3 49.4199 15.5333 50.5532 16C51.7032 16.45 52.6782 17.1167 53.4782 18L51.9282 19.55C50.5282 18.2 48.8366 17.525 46.8532 17.525C45.5199 17.525 44.3199 17.8167 43.2532 18.4C42.2032 18.9667 41.3782 19.7667 40.7782 20.8C40.1782 21.8167 39.8782 22.9667 39.8782 24.25C39.8782 25.5167 40.1782 26.6667 40.7782 27.7C41.3782 28.7167 42.2032 29.5167 43.2532 30.1C44.3199 30.6833 45.5116 30.975 46.8282 30.975C48.3949 30.975 49.7616 30.6 50.9282 29.85V24.15ZM57.5147 19.75H59.9147V33H57.5147V19.75ZM58.7147 17.2C58.2481 17.2 57.8564 17.05 57.5397 16.75C57.2397 16.45 57.0897 16.0833 57.0897 15.65C57.0897 15.2167 57.2397 14.85 57.5397 14.55C57.8564 14.2333 58.2481 14.075 58.7147 14.075C59.1814 14.075 59.5647 14.225 59.8647 14.525C60.1814 14.8083 60.3397 15.1667 60.3397 15.6C60.3397 16.05 60.1814 16.4333 59.8647 16.75C59.5647 17.05 59.1814 17.2 58.7147 17.2ZM71.6972 32.225C71.3472 32.525 70.9138 32.7583 70.3972 32.925C69.8805 33.075 69.3472 33.15 68.7972 33.15C67.4638 33.15 66.4305 32.7917 65.6972 32.075C64.9638 31.3583 64.5972 30.3333 64.5972 29V21.725H62.3472V19.75H64.5972V16.85H66.9972V19.75H70.7972V21.725H66.9972V28.9C66.9972 29.6167 67.1722 30.1667 67.5222 30.55C67.8888 30.9333 68.4055 31.125 69.0722 31.125C69.8055 31.125 70.4305 30.9167 70.9472 30.5L71.6972 32.225ZM89.7487 15.5V33H87.2487V25.2H77.1987V33H74.6987V15.5H77.1987V23.025H87.2487V15.5H89.7487ZM106.737 19.75V33H104.462V31C103.978 31.6833 103.337 32.2167 102.537 32.6C101.753 32.9667 100.895 33.15 99.9618 33.15C98.1951 33.15 96.8035 32.6667 95.7868 31.7C94.7701 30.7167 94.2618 29.275 94.2618 27.375V19.75H96.6618V27.1C96.6618 28.3833 96.9702 29.3583 97.5868 30.025C98.2035 30.675 99.0868 31 100.237 31C101.503 31 102.503 30.6167 103.237 29.85C103.97 29.0833 104.337 28 104.337 26.6V19.75H106.737ZM118.081 19.625C119.364 19.625 120.514 19.9083 121.531 20.475C122.547 21.0417 123.339 21.8333 123.906 22.85C124.489 23.8667 124.781 25.0417 124.781 26.375C124.781 27.7083 124.489 28.8917 123.906 29.925C123.339 30.9417 122.547 31.7333 121.531 32.3C120.514 32.8667 119.364 33.15 118.081 33.15C117.097 33.15 116.197 32.9583 115.381 32.575C114.564 32.1917 113.889 31.6333 113.356 30.9V33H111.056V14.45H113.456V21.75C113.989 21.05 114.656 20.525 115.456 20.175C116.256 19.8083 117.131 19.625 118.081 19.625ZM117.881 31.05C118.731 31.05 119.489 30.8583 120.156 30.475C120.839 30.075 121.372 29.525 121.756 28.825C122.156 28.1083 122.356 27.2917 122.356 26.375C122.356 25.4583 122.156 24.65 121.756 23.95C121.372 23.2333 120.839 22.6833 120.156 22.3C119.489 21.9167 118.731 21.725 117.881 21.725C117.047 21.725 116.289 21.9167 115.606 22.3C114.922 22.6833 114.389 23.2333 114.006 23.95C113.622 24.65 113.431 25.4583 113.431 26.375C113.431 27.2917 113.622 28.1083 114.006 28.825C114.389 29.525 114.922 30.075 115.606 30.475C116.289 30.8583 117.047 31.05 117.881 31.05Z" fill="white"/>
</svg>
