<svg width="147" height="39" viewBox="0 0 147 39" fill="none" xmlns="http://www.w3.org/2000/svg">
<path d="M4.45392 0C2.0029 0 0 2.0029 0 4.45392C0 6.90521 2.0029 8.90811 4.45392 8.90811C6.90521 8.90811 8.90811 6.90521 8.90811 4.45392C8.90811 2.0029 6.90521 0 4.45392 0ZM4.45392 1.48453C6.10263 1.48453 7.42331 2.80522 7.42331 4.45392C7.42331 6.10263 6.10263 7.42331 4.45392 7.42331C2.80522 7.42331 1.48453 6.10263 1.48453 4.45392C1.48453 2.80522 2.80522 1.48453 4.45392 1.48453V1.48453ZM23.7545 9.65018C21.3809 9.65018 19.7677 10.6594 18.5584 11.8193V11.135C18.5584 10.7464 18.2047 10.3928 17.8161 10.3928H11.8773C11.4887 10.3928 11.135 10.7464 11.135 11.135V31.178C11.135 31.5666 11.4887 31.9203 11.8773 31.9203H18.1871C18.5757 31.9203 18.9293 31.5666 18.9293 31.178V20.043C18.9293 19.1034 19.2255 18.2131 19.6599 17.6072C20.0949 17.0014 20.6202 16.7027 21.1564 16.7027H21.8986C22.4348 16.7027 22.9602 17.0014 23.3948 17.6072C23.8298 18.2133 24.1257 19.1037 24.1257 20.0433V31.1783C24.1257 31.5669 24.4794 31.9205 24.868 31.9205H31.1777C31.5663 31.9205 31.92 31.5669 31.92 31.1783L31.9202 18.1875C31.9202 15.7128 31.4563 13.5645 30.1341 12.0167C28.8116 10.4689 26.6857 9.65057 23.7547 9.65057L23.7545 9.65018ZM1.415 10.3927C1.04995 10.4271 0.740542 10.7684 0.742133 11.135V31.1779C0.742133 31.5665 1.09579 31.9202 1.4844 31.9202H7.79415C8.18277 31.9202 8.53641 31.5665 8.53641 31.1779V11.135C8.53641 10.7464 8.18275 10.3927 7.79415 10.3927H1.41474H1.415ZM23.7545 11.135C26.4174 11.135 28.0065 11.8195 28.9974 12.9791C29.9879 14.139 30.4353 15.9029 30.4353 18.1873V30.4357H25.6101V20.0431C25.6104 18.8029 25.2399 17.6394 24.6011 16.7488C23.9624 15.8584 23.0073 15.2179 21.8987 15.2179H21.1564C20.0476 15.2179 19.0927 15.8584 18.454 16.7491C17.8151 17.6395 17.4446 18.8029 17.4446 20.0431V24.497H17.0039C16.6153 24.5151 16.278 24.8854 16.2963 25.2743C16.3145 25.6629 16.6847 26 17.0736 25.9816H17.4449V27.4661H17.0042C16.6156 27.4843 16.2783 27.8545 16.2966 28.2434C16.3145 28.6323 16.6847 28.9694 17.0736 28.951H17.4449V30.4355H12.6197V11.8772H17.0736V13.7331C17.0733 14.0383 17.282 14.3329 17.5702 14.4339C17.8583 14.5351 18.2053 14.4357 18.3958 14.197C19.6422 12.6433 20.9701 11.135 23.7546 11.135L23.7545 11.135ZM2.22693 11.8772H7.05215V24.4969H6.6115C6.22288 24.515 5.88553 24.8852 5.90389 25.2741C5.92176 25.663 6.29225 26.0001 6.68089 25.9817H7.05216V27.4663H6.61151C6.22289 27.4844 5.88555 27.8546 5.90391 28.2435C5.92177 28.6324 6.29227 28.9695 6.6809 28.9511H7.05217V30.4357H2.22695L2.22693 11.8772Z" fill="#FCFCFC"/>
<path d="M40.1045 14.5H42.6045V29.825H52.0795V32H40.1045V14.5ZM54.3482 18.75H56.7482V32H54.3482V18.75ZM55.5482 16.2C55.0816 16.2 54.6899 16.05 54.3732 15.75C54.0732 15.45 53.9232 15.0833 53.9232 14.65C53.9232 14.2167 54.0732 13.85 54.3732 13.55C54.6899 13.2333 55.0816 13.075 55.5482 13.075C56.0149 13.075 56.3982 13.225 56.6982 13.525C57.0149 13.8083 57.1732 14.1667 57.1732 14.6C57.1732 15.05 57.0149 15.4333 56.6982 15.75C56.3982 16.05 56.0149 16.2 55.5482 16.2ZM68.1557 18.625C69.839 18.625 71.1723 19.1167 72.1557 20.1C73.1557 21.0667 73.6557 22.4917 73.6557 24.375V32H71.2557V24.65C71.2557 23.3667 70.9473 22.4 70.3307 21.75C69.714 21.1 68.8307 20.775 67.6807 20.775C66.3807 20.775 65.3557 21.1583 64.6057 21.925C63.8557 22.675 63.4807 23.7583 63.4807 25.175V32H61.0807V18.75H63.3807V20.75C63.864 20.0667 64.514 19.5417 65.3307 19.175C66.164 18.8083 67.1057 18.625 68.1557 18.625ZM82.9973 25.825L80.2473 28.375V32H77.8473V13.45H80.2473V25.35L87.4723 18.75H90.3723L84.7973 24.225L90.9223 32H87.9723L82.9973 25.825ZM104.416 25.45C104.416 25.6333 104.399 25.875 104.366 26.175H93.616C93.766 27.3417 94.2743 28.2833 95.141 29C96.0243 29.7 97.116 30.05 98.416 30.05C99.9993 30.05 101.274 29.5167 102.241 28.45L103.566 30C102.966 30.7 102.216 31.2333 101.316 31.6C100.433 31.9667 99.441 32.15 98.341 32.15C96.941 32.15 95.6993 31.8667 94.616 31.3C93.5327 30.7167 92.691 29.9083 92.091 28.875C91.5077 27.8417 91.216 26.675 91.216 25.375C91.216 24.0917 91.4993 22.9333 92.066 21.9C92.6493 20.8667 93.441 20.0667 94.441 19.5C95.4577 18.9167 96.5993 18.625 97.866 18.625C99.1327 18.625 100.258 18.9167 101.241 19.5C102.241 20.0667 103.016 20.8667 103.566 21.9C104.133 22.9333 104.416 24.1167 104.416 25.45ZM97.866 20.65C96.716 20.65 95.7493 21 94.966 21.7C94.1993 22.4 93.7493 23.3167 93.616 24.45H102.116C101.983 23.3333 101.524 22.425 100.741 21.725C99.9743 21.0083 99.016 20.65 97.866 20.65ZM119.999 13.45V32H117.699V29.9C117.165 30.6333 116.49 31.1917 115.674 31.575C114.857 31.9583 113.957 32.15 112.974 32.15C111.69 32.15 110.54 31.8667 109.524 31.3C108.507 30.7333 107.707 29.9417 107.124 28.925C106.557 27.8917 106.274 26.7083 106.274 25.375C106.274 24.0417 106.557 22.8667 107.124 21.85C107.707 20.8333 108.507 20.0417 109.524 19.475C110.54 18.9083 111.69 18.625 112.974 18.625C113.924 18.625 114.799 18.8083 115.599 19.175C116.399 19.525 117.065 20.05 117.599 20.75V13.45H119.999ZM113.174 30.05C114.007 30.05 114.765 29.8583 115.449 29.475C116.132 29.075 116.665 28.525 117.049 27.825C117.432 27.1083 117.624 26.2917 117.624 25.375C117.624 24.4583 117.432 23.65 117.049 22.95C116.665 22.2333 116.132 21.6833 115.449 21.3C114.765 20.9167 114.007 20.725 113.174 20.725C112.324 20.725 111.557 20.9167 110.874 21.3C110.207 21.6833 109.674 22.2333 109.274 22.95C108.89 23.65 108.699 24.4583 108.699 25.375C108.699 26.2917 108.89 27.1083 109.274 27.825C109.674 28.525 110.207 29.075 110.874 29.475C111.557 29.8583 112.324 30.05 113.174 30.05ZM124.64 14.5H127.14V32H124.64V14.5ZM138.854 18.625C140.537 18.625 141.871 19.1167 142.854 20.1C143.854 21.0667 144.354 22.4917 144.354 24.375V32H141.954V24.65C141.954 23.3667 141.646 22.4 141.029 21.75C140.412 21.1 139.529 20.775 138.379 20.775C137.079 20.775 136.054 21.1583 135.304 21.925C134.554 22.675 134.179 23.7583 134.179 25.175V32H131.779V18.75H134.079V20.75C134.562 20.0667 135.212 19.5417 136.029 19.175C136.862 18.8083 137.804 18.625 138.854 18.625Z" fill="white"/>
</svg>
