<svg width="116" height="32" viewBox="0 0 116 32" fill="none" xmlns="http://www.w3.org/2000/svg">
<path d="M33.4504 25.15C32.1004 25.15 30.8921 24.8583 29.8254 24.275C28.7754 23.6917 27.9504 22.8917 27.3504 21.875C26.7504 20.8417 26.4504 19.675 26.4504 18.375C26.4504 17.075 26.7504 15.9167 27.3504 14.9C27.9504 13.8667 28.7754 13.0667 29.8254 12.5C30.8921 11.9167 32.1004 11.625 33.4504 11.625C34.6504 11.625 35.7171 11.8667 36.6504 12.35C37.6004 12.8333 38.3337 13.5333 38.8504 14.45L37.0254 15.625C36.6087 14.9917 36.0921 14.5167 35.4754 14.2C34.8587 13.8833 34.1754 13.725 33.4254 13.725C32.5587 13.725 31.7754 13.9167 31.0754 14.3C30.3921 14.6833 29.8504 15.2333 29.4504 15.95C29.0671 16.65 28.8754 17.4583 28.8754 18.375C28.8754 19.3083 29.0671 20.1333 29.4504 20.85C29.8504 21.55 30.3921 22.0917 31.0754 22.475C31.7754 22.8583 32.5587 23.05 33.4254 23.05C34.1754 23.05 34.8587 22.8917 35.4754 22.575C36.0921 22.2583 36.6087 21.7833 37.0254 21.15L38.8504 22.3C38.3337 23.2167 37.6004 23.925 36.6504 24.425C35.7171 24.9083 34.6504 25.15 33.4504 25.15ZM46.5326 11.625C48.366 11.625 49.766 12.075 50.7326 12.975C51.716 13.875 52.2076 15.2167 52.2076 17V25H49.9326V23.25C49.5326 23.8667 48.9576 24.3417 48.2076 24.675C47.4743 24.9917 46.5993 25.15 45.5826 25.15C44.0993 25.15 42.9076 24.7917 42.0076 24.075C41.1243 23.3583 40.6826 22.4167 40.6826 21.25C40.6826 20.0833 41.1076 19.15 41.9576 18.45C42.8076 17.7333 44.1576 17.375 46.0076 17.375H49.8076V16.9C49.8076 15.8667 49.5076 15.075 48.9076 14.525C48.3076 13.975 47.4243 13.7 46.2576 13.7C45.4743 13.7 44.7076 13.8333 43.9576 14.1C43.2076 14.35 42.5743 14.6917 42.0576 15.125L41.0576 13.325C41.741 12.775 42.5576 12.3583 43.5076 12.075C44.4576 11.775 45.466 11.625 46.5326 11.625ZM45.9826 23.3C46.8993 23.3 47.691 23.1 48.3576 22.7C49.0243 22.2833 49.5076 21.7 49.8076 20.95V19.1H46.1076C44.0743 19.1 43.0576 19.7833 43.0576 21.15C43.0576 21.8167 43.316 22.3417 43.8326 22.725C44.3493 23.1083 45.066 23.3 45.9826 23.3ZM56.399 6.45H58.799V25H56.399V6.45ZM63.1314 6.45H65.5314V25H63.1314V6.45ZM92.9027 11.625C94.5694 11.625 95.8861 12.1083 96.8527 13.075C97.8361 14.0417 98.3277 15.475 98.3277 17.375V25H95.9277V17.65C95.9277 16.3667 95.6277 15.4 95.0277 14.75C94.4444 14.1 93.6027 13.775 92.5027 13.775C91.2861 13.775 90.3194 14.1583 89.6027 14.925C88.8861 15.675 88.5277 16.7583 88.5277 18.175V25H86.1277V17.65C86.1277 16.3667 85.8277 15.4 85.2277 14.75C84.6444 14.1 83.8027 13.775 82.7027 13.775C81.4861 13.775 80.5194 14.1583 79.8027 14.925C79.0861 15.675 78.7277 16.7583 78.7277 18.175V25H76.3277V11.75H78.6277V13.725C79.1111 13.0417 79.7444 12.525 80.5277 12.175C81.3111 11.8083 82.2027 11.625 83.2027 11.625C84.2361 11.625 85.1527 11.8333 85.9527 12.25C86.7527 12.6667 87.3694 13.275 87.8027 14.075C88.3027 13.3083 88.9944 12.7083 89.8777 12.275C90.7777 11.8417 91.7861 11.625 92.9027 11.625ZM114.542 18.45C114.542 18.6333 114.525 18.875 114.492 19.175H103.742C103.892 20.3417 104.4 21.2833 105.267 22C106.15 22.7 107.242 23.05 108.542 23.05C110.125 23.05 111.4 22.5167 112.367 21.45L113.692 23C113.092 23.7 112.342 24.2333 111.442 24.6C110.559 24.9667 109.567 25.15 108.467 25.15C107.067 25.15 105.825 24.8667 104.742 24.3C103.659 23.7167 102.817 22.9083 102.217 21.875C101.634 20.8417 101.342 19.675 101.342 18.375C101.342 17.0917 101.625 15.9333 102.192 14.9C102.775 13.8667 103.567 13.0667 104.567 12.5C105.584 11.9167 106.725 11.625 107.992 11.625C109.259 11.625 110.384 11.9167 111.367 12.5C112.367 13.0667 113.142 13.8667 113.692 14.9C114.259 15.9333 114.542 17.1167 114.542 18.45ZM107.992 13.65C106.842 13.65 105.875 14 105.092 14.7C104.325 15.4 103.875 16.3167 103.742 17.45H112.242C112.109 16.3333 111.65 15.425 110.867 14.725C110.1 14.0083 109.142 13.65 107.992 13.65Z" fill="white"/>
<path d="M15.4099 0H4.59015C3.37294 0.000930065 2.20591 0.484794 1.34537 1.34536C0.484825 2.20591 0.000952387 3.37288 0 4.59015V27.0766C0.000930065 28.2938 0.484795 29.4608 1.34537 30.3214C2.20591 31.1819 3.37288 31.6658 4.59015 31.6667H15.4099C16.6271 31.6658 17.7941 31.1819 18.6546 30.3214C19.5152 29.4608 19.999 28.2939 20 27.0766V4.59015C19.9991 3.37294 19.5152 2.20591 18.6546 1.34536C17.7941 0.484824 16.6271 0.000952386 15.4099 0V0ZM18.3333 27.0769C18.3314 27.8517 18.0229 28.5943 17.475 29.1421C16.9272 29.6899 16.1846 29.9985 15.4099 30.0003H4.59015C3.81538 29.9985 3.07276 29.6899 2.52496 29.1421C1.97715 28.5943 1.66858 27.8516 1.66674 27.0769V4.5905C1.6686 3.81574 1.97714 3.07311 2.52496 2.52531C3.07277 1.97751 3.81544 1.66894 4.59015 1.66709H15.4099C16.1846 1.66895 16.9272 1.9775 17.475 2.52531C18.0228 3.07312 18.3314 3.8158 18.3333 4.5905V27.0769Z" fill="#FCFCFC"/>
<path d="M11.6664 26.6667C11.6664 27.5872 10.9202 28.3334 9.99968 28.3334C9.07914 28.3334 8.33301 27.5872 8.33301 26.6667C8.33301 25.7461 9.07914 25 9.99968 25C10.9202 25 11.6664 25.7461 11.6664 26.6667Z" fill="#FCFCFC"/>
</svg>
